<svg viewBox="0 0 50 50" fill="none" xmlns="http://www.w3.org/2000/svg">
<path d="M7.49612 25.4868C10.2039 32.5172 17.0227 37.5 25.0001 37.5V41.6666C15.2426 41.6666 6.91443 35.5694 3.60789 26.9845L7.49612 25.4868ZM25.0001 37.5C32.9774 37.5 39.7961 32.5172 42.5038 25.4868L46.3922 26.9845C43.0855 35.5694 34.7574 41.6666 25.0001 41.6666V37.5ZM42.5038 24.5131C39.7961 17.4827 32.9774 12.5 25.0001 12.5V8.33329C34.7574 8.33329 43.0855 14.4306 46.3922 23.0154L42.5038 24.5131ZM25.0001 12.5C17.0227 12.5 10.2039 17.4827 7.49612 24.5131L3.60789 23.0154C6.91443 14.4306 15.2426 8.33329 25.0001 8.33329V12.5ZM42.5038 25.4868C42.6245 25.1739 42.6245 24.826 42.5038 24.5131L46.3922 23.0154C46.884 24.2925 46.884 25.7075 46.3922 26.9845L42.5038 25.4868ZM3.60789 26.9845C3.11606 25.7075 3.11606 24.2925 3.60789 23.0154L7.49612 24.5131C7.37553 24.826 7.37553 25.1739 7.49612 25.4868L3.60789 26.9845Z" fill="currentColor"/>
<path d="M25 18.75C28.4518 18.75 31.25 21.5482 31.25 25C31.25 28.4518 28.4518 31.25 25 31.25C21.5482 31.25 18.75 28.4518 18.75 25C18.75 21.5482 21.5482 18.75 25 18.75Z" stroke="currentColor" stroke-width="5" stroke-linecap="round" stroke-linejoin="round"/>
</svg>
