<svg width="29" height="19" viewBox="0 0 29 19" fill="none" xmlns="http://www.w3.org/2000/svg">
<path d="M3.125 0C1.40137 0 0 1.40137 0 3.125V6.25C0 6.67969 0.361328 7.0166 0.766602 7.1582C1.68457 7.47559 2.34375 8.34961 2.34375 9.375C2.34375 10.4004 1.68457 11.2744 0.766602 11.5918C0.361328 11.7334 0 12.0703 0 12.5V15.625C0 17.3486 1.40137 18.75 3.125 18.75H25C26.7236 18.75 28.125 17.3486 28.125 15.625V12.5C28.125 12.0703 27.7637 11.7334 27.3584 11.5918C26.4404 11.2744 25.7812 10.4004 25.7812 9.375C25.7812 8.34961 26.4404 7.47559 27.3584 7.1582C27.7637 7.0166 28.125 6.67969 28.125 6.25V3.125C28.125 1.40137 26.7236 0 25 0H3.125ZM6.25 5.46875V13.2812C6.25 13.7109 6.60156 14.0625 7.03125 14.0625H21.0938C21.5234 14.0625 21.875 13.7109 21.875 13.2812V5.46875C21.875 5.03906 21.5234 4.6875 21.0938 4.6875H7.03125C6.60156 4.6875 6.25 5.03906 6.25 5.46875ZM4.6875 4.6875C4.6875 3.82324 5.38574 3.125 6.25 3.125H21.875C22.7393 3.125 23.4375 3.82324 23.4375 4.6875V14.0625C23.4375 14.9268 22.7393 15.625 21.875 15.625H6.25C5.38574 15.625 4.6875 14.9268 4.6875 14.0625V4.6875Z" fill="white"/>
</svg>
