<svg width="22" height="20" viewBox="0 0 22 20" fill="none" xmlns="http://www.w3.org/2000/svg">
<path d="M1.03125 0C1.60273 0 2.0625 0.459766 2.0625 1.03125V16.1562C2.0625 16.7277 2.52227 17.1875 3.09375 17.1875H20.9688C21.5402 17.1875 22 17.6473 22 18.2188C22 18.7902 21.5402 19.25 20.9688 19.25H3.09375C1.38359 19.25 0 17.8664 0 16.1562V1.03125C0 0.459766 0.459766 0 1.03125 0ZM5.5 4.46875C5.5 3.89727 5.95977 3.4375 6.53125 3.4375H15.4688C16.0402 3.4375 16.5 3.89727 16.5 4.46875C16.5 5.04023 16.0402 5.5 15.4688 5.5H6.53125C5.95977 5.5 5.5 5.04023 5.5 4.46875ZM6.53125 7.5625H12.7188C13.2902 7.5625 13.75 8.02227 13.75 8.59375C13.75 9.16523 13.2902 9.625 12.7188 9.625H6.53125C5.95977 9.625 5.5 9.16523 5.5 8.59375C5.5 8.02227 5.95977 7.5625 6.53125 7.5625ZM6.53125 11.6875H18.2188C18.7902 11.6875 19.25 12.1473 19.25 12.7188C19.25 13.2902 18.7902 13.75 18.2188 13.75H6.53125C5.95977 13.75 5.5 13.2902 5.5 12.7188C5.5 12.1473 5.95977 11.6875 6.53125 11.6875Z" fill="#B4C0FF"/>
</svg>
