<svg width="22" height="20" viewBox="0 0 22 20" fill="none" xmlns="http://www.w3.org/2000/svg">
<path d="M10.625 9.375V0.648438C10.625 0.296875 10.8984 0 11.25 0C16.082 0 20 3.91797 20 8.75C20 9.10156 19.7031 9.375 19.3516 9.375H10.625ZM0 10.625C0 5.88672 3.51953 1.96484 8.08594 1.33984C8.44531 1.28906 8.75 1.57812 8.75 1.94141V11.25L14.8633 17.3633C15.125 17.625 15.1055 18.0547 14.8047 18.2656C13.2734 19.3594 11.3984 20 9.375 20C4.19922 20 0 15.8047 0 10.625ZM20.5625 11.25C20.9258 11.25 21.2109 11.5547 21.1641 11.9141C20.8633 14.0977 19.8125 16.0391 18.2773 17.4727C18.043 17.6914 17.6758 17.6758 17.4492 17.4453L11.25 11.25H20.5625Z" fill="#B4C0FF"/>
</svg>
