<svg width="25" height="25" viewBox="0 0 25 25" fill="none" xmlns="http://www.w3.org/2000/svg">
<path d="M22.8125 13.75C23.332 13.75 23.75 14.168 23.75 14.6875V18.75C23.75 20.1289 22.6289 21.25 21.25 21.25H3.75C2.37109 21.25 1.25 20.1289 1.25 18.75V14.6875C1.25 14.168 1.66797 13.75 2.1875 13.75C2.70703 13.75 3.125 14.168 3.125 14.6875V18.75C3.125 19.0938 3.40625 19.375 3.75 19.375H21.25C21.5938 19.375 21.875 19.0938 21.875 18.75V14.6875C21.875 14.168 22.293 13.75 22.8125 13.75ZM17.5 3.75C18.8789 3.75 20 4.87109 20 6.25V15C20 16.3789 18.8789 17.5 17.5 17.5H7.5C6.12109 17.5 5 16.3789 5 15V6.25C5 4.87109 6.12109 3.75 7.5 3.75H17.5ZM16.0508 7.05469C15.6328 6.75 15.0469 6.84375 14.7422 7.26172L11.3984 11.8594L10.3633 10.7891C10.0039 10.418 9.41016 10.4063 9.03906 10.7656C8.66797 11.125 8.65625 11.7188 9.01562 12.0898L10.8281 13.9648C11.0195 14.1641 11.2891 14.2695 11.5664 14.25C11.8438 14.2305 12.0977 14.0898 12.2617 13.8672L16.2578 8.36328C16.5625 7.94531 16.4688 7.35938 16.0508 7.05469Z" fill="#A9A9A9"/>
</svg>
