<svg width="5" height="20" viewBox="0 0 5 20" fill="none" xmlns="http://www.w3.org/2000/svg">
<path d="M2.5 14.0625C1.91984 14.0625 1.36344 14.293 0.953204 14.7032C0.542968 15.1134 0.3125 15.6698 0.3125 16.25C0.3125 16.8302 0.542968 17.3866 0.953204 17.7968C1.36344 18.207 1.91984 18.4375 2.5 18.4375C3.08016 18.4375 3.63656 18.207 4.0468 17.7968C4.45703 17.3866 4.6875 16.8302 4.6875 16.25C4.6875 15.6698 4.45703 15.1134 4.0468 14.7032C3.63656 14.293 3.08016 14.0625 2.5 14.0625ZM2.5 7.8125C1.91984 7.8125 1.36344 8.04297 0.953204 8.4532C0.542968 8.86344 0.3125 9.41984 0.3125 10C0.3125 10.5802 0.542968 11.1366 0.953204 11.5468C1.36344 11.957 1.91984 12.1875 2.5 12.1875C3.08016 12.1875 3.63656 11.957 4.0468 11.5468C4.45703 11.1366 4.6875 10.5802 4.6875 10C4.6875 9.41984 4.45703 8.86344 4.0468 8.4532C3.63656 8.04297 3.08016 7.8125 2.5 7.8125ZM4.6875 3.75C4.6875 3.16984 4.45703 2.61344 4.0468 2.2032C3.63656 1.79297 3.08016 1.5625 2.5 1.5625C1.91984 1.5625 1.36344 1.79297 0.953204 2.2032C0.542968 2.61344 0.3125 3.16984 0.3125 3.75C0.3125 4.33016 0.542968 4.88656 0.953204 5.2968C1.36344 5.70703 1.91984 5.9375 2.5 5.9375C3.08016 5.9375 3.63656 5.70703 4.0468 5.2968C4.45703 4.88656 4.6875 4.33016 4.6875 3.75Z" fill="#C5C5C5"/>
</svg>
