<svg viewBox="0 0 50 50" fill="none" xmlns="http://www.w3.org/2000/svg">
<path d="M8.33325 8.33337L41.6666 41.6667" stroke="currentColor" stroke-width="5" stroke-linecap="round"/>
<path fill-rule="evenodd" clip-rule="evenodd" d="M12.9648 11.7445C8.73366 14.3609 5.41818 18.3154 3.60789 23.0155C3.11606 24.2925 3.11606 25.7075 3.60789 26.9846C6.91443 35.5694 15.2426 41.6667 25.0001 41.6667C30.0459 41.6667 34.7097 40.0361 38.4945 37.274L35.5042 34.2838C32.5069 36.3144 28.8913 37.5 25.0001 37.5C17.0227 37.5 10.2039 32.5173 7.49612 25.4869C7.37553 25.174 7.37553 24.8261 7.49612 24.5132C9.09864 20.3524 12.141 16.9089 16.0113 14.791L12.9648 11.7445ZM19.7491 18.5288C17.8684 20.0567 16.6667 22.388 16.6667 25C16.6667 29.6023 20.3976 33.3334 25.0001 33.3334C27.6119 33.3334 29.9434 32.1317 31.4713 30.2509L28.493 27.2725C27.7495 28.413 26.4628 29.1667 25.0001 29.1667C22.6988 29.1667 20.8333 27.3013 20.8333 25C20.8333 23.5373 21.5872 22.2505 22.7274 21.5071L19.7491 18.5288ZM33.2557 26.1427L23.8574 16.7444C24.2309 16.6932 24.6124 16.6667 25.0001 16.6667C29.6024 16.6667 33.3334 20.3977 33.3334 25C33.3334 25.3877 33.3069 25.7692 33.2557 26.1427ZM38.683 31.57C40.3205 29.8232 41.6276 27.7623 42.5038 25.4869C42.6245 25.174 42.6245 24.8261 42.5038 24.5132C39.7961 17.4828 32.9774 12.5 25.0001 12.5C23.3505 12.5 21.7505 12.7131 20.2261 13.1132L16.9137 9.80081C19.428 8.85239 22.1532 8.33337 25.0001 8.33337C34.7574 8.33337 43.0855 14.4306 46.3922 23.0155C46.884 24.2925 46.884 25.7075 46.3922 26.9846C45.3051 29.8071 43.6751 32.3607 41.6301 34.5171L38.683 31.57Z" fill="currentColor"/>
</svg>
