<?xml version="1.0" standalone="no"?>
<!DOCTYPE svg PUBLIC "-//W3C//DTD SVG 20010904//EN"
 "http://www.w3.org/TR/2001/REC-SVG-20010904/DTD/svg10.dtd">
<svg version="1.0" xmlns="http://www.w3.org/2000/svg"
 width="512.000000pt" height="512.000000pt" viewBox="0 0 512.000000 512.000000"
 preserveAspectRatio="xMidYMid meet">

<g transform="translate(0.000000,512.000000) scale(0.100000,-0.100000)"
fill="#000000" stroke="none">
<path d="M2177 5106 c-55 -20 -103 -61 -134 -114 l-28 -47 0 -275 0 -275 28
-47 c15 -26 42 -59 60 -72 65 -50 103 -56 327 -56 l208 0 -552 -1657 -553
-1658 -324 -5 -324 -5 -45 -27 c-58 -34 -84 -63 -109 -118 -17 -40 -20 -72
-23 -300 -3 -241 -2 -257 18 -300 26 -56 87 -112 145 -134 40 -15 130 -16
1049 -14 l1005 3 41 22 c22 12 56 39 74 59 60 69 63 83 64 369 1 293 -1 303
-76 376 -63 61 -102 69 -339 69 l-207 0 552 1657 553 1658 324 5 c224 3 332 9
351 17 49 22 116 92 135 141 16 41 18 80 18 292 0 213 -2 251 -18 292 -22 58
-98 129 -155 146 -61 18 -2013 16 -2065 -2z"/>
</g>
</svg>
