<svg width="21" height="20" viewBox="0 0 21 20" fill="none" xmlns="http://www.w3.org/2000/svg">
<path d="M20.8261 9.98047C20.8261 10.6836 20.2836 11.2344 19.6687 11.2344H18.5113L18.5366 17.4922C18.5366 17.5977 18.5294 17.7031 18.5185 17.8086V18.4375C18.5185 19.3008 17.8711 20 17.0718 20H16.4931C16.4533 20 16.4135 20 16.3737 19.9961C16.3231 20 16.2724 20 16.2218 20H15.0463H14.1782C13.3789 20 12.7315 19.3008 12.7315 18.4375V17.5V15C12.7315 14.3086 12.2143 13.75 11.5741 13.75H9.25926C8.61907 13.75 8.10185 14.3086 8.10185 15V17.5V18.4375C8.10185 19.3008 7.45443 20 6.65509 20H5.78704H4.63325C4.57899 20 4.52474 19.9961 4.47049 19.9922C4.42708 19.9961 4.38368 20 4.34028 20H3.76157C2.96224 20 2.31482 19.3008 2.31482 18.4375V14.0625C2.31482 14.0273 2.31482 13.9883 2.31843 13.9531V11.2344H1.15741C0.506366 11.2344 0 10.6875 0 9.98047C0 9.62891 0.108507 9.31641 0.36169 9.04297L9.63542 0.3125C9.8886 0.0390625 10.178 0 10.4311 0C10.6843 0 10.9737 0.078125 11.1907 0.273438L20.4282 9.04297C20.7176 9.31641 20.8623 9.62891 20.8261 9.98047Z" fill="#B4C0FF"/>
</svg>
