<?xml version="1.0" standalone="no"?>
<!DOCTYPE svg PUBLIC "-//W3C//DTD SVG 20010904//EN"
 "http://www.w3.org/TR/2001/REC-SVG-20010904/DTD/svg10.dtd">
<svg version="1.0" xmlns="http://www.w3.org/2000/svg"
 width="512.000000pt" height="512.000000pt" viewBox="0 0 512.000000 512.000000"
 preserveAspectRatio="xMidYMid meet">

<g transform="translate(0.000000,512.000000) scale(0.100000,-0.100000)"
fill="#000000" stroke="none">
<path d="M605 5046 c-37 -17 -70 -52 -84 -89 -7 -18 -11 -144 -11 -342 0 -349
4 -375 64 -418 29 -21 43 -22 251 -27 l220 -5 0 -1605 0 -1605 -220 -5 c-331
-8 -317 14 -313 -462 3 -312 4 -328 24 -354 11 -15 33 -37 48 -48 27 -21 33
-21 1264 -24 838 -2 1272 0 1345 8 259 26 526 122 743 269 530 357 775 974
629 1586 -65 275 -196 506 -407 719 -65 65 -118 120 -118 122 0 1 25 38 56 81
64 89 141 242 178 355 101 310 83 685 -49 991 -75 175 -169 312 -315 457 -189
190 -427 318 -708 382 -97 22 -98 22 -1332 25 -1020 2 -1240 0 -1265 -11z
m2481 -907 c223 -81 363 -277 364 -506 0 -241 -165 -458 -395 -518 -50 -13
-145 -15 -587 -15 l-528 0 0 536 0 535 538 -3 537 -3 71 -26z m-6 -1960 c218
-60 394 -243 446 -464 21 -90 14 -234 -15 -325 -60 -190 -213 -343 -405 -407
l-81 -28 -542 -3 -543 -3 0 625 0 626 533 0 c507 0 536 -1 607 -21z"/>
</g>
</svg>
