<?xml version="1.0" encoding="UTF-8"?>
<svg version="1.1" xmlns="http://www.w3.org/2000/svg" width="200" height="200">
<path d="M0 0 C66 0 132 0 200 0 C200 66 200 132 200 200 C134 200 68 200 0 200 C0 134 0 68 0 0 Z " fill="#666666" transform="translate(0,0)"/>
<path d="M0 0 C10.18139203 6.07175579 16.9636984 13.4834621 20.51171875 25.03515625 C23.11586102 36.52593404 21.68653293 47.26666415 15.84375 57.59375 C11.62949958 63.79315631 7.20056161 68.05408762 0.57421875 71.53515625 C-0.12703125 71.94636719 -0.82828125 72.35757813 -1.55078125 72.78125 C-9.9189033 76.97983902 -21.58854808 77.53515259 -30.55908203 74.91113281 C-41.92022291 70.50233188 -49.81905163 63.26722962 -55.42578125 52.53515625 C-60.18842098 40.62855693 -59.35621555 29.25766377 -54.42578125 17.53515625 C-50.68202389 10.654225 -46.13414505 5.56495768 -39.42578125 1.53515625 C-38.67167969 1.04917969 -37.91757813 0.56320313 -37.140625 0.0625 C-26.13874558 -6.0420977 -11.1256173 -5.5705671 0 0 Z " fill="#666666" transform="translate(118.42578125,39.46484375)"/>
<path d="M0 0 C8.45493377 6.80319623 14.59509687 16.908545 16.08520508 27.72998047 C17.08273082 42.6244557 14.33757216 54.48357386 4.31640625 65.984375 C-0.44488321 70.57040227 -5.93528475 74.33910533 -12.23046875 76.4375 C-10.88855469 76.85708984 -10.88855469 76.85708984 -9.51953125 77.28515625 C-1.41196767 79.97327168 5.03208217 83.04997303 11.76953125 88.4375 C12.68605469 89.09298828 12.68605469 89.09298828 13.62109375 89.76171875 C24.61981379 98.12375933 31.8916384 112.90582613 34.5 126.19140625 C34.98956928 130.27115028 34.92360301 134.33747924 34.76953125 138.4375 C33.44953125 138.4375 32.12953125 138.4375 30.76953125 138.4375 C30.599375 137.24253906 30.42921875 136.04757813 30.25390625 134.81640625 C28.51176127 122.66225971 28.51176127 122.66225971 23.76953125 111.4375 C23.31449219 110.60992187 22.85945313 109.78234375 22.390625 108.9296875 C20.92847171 106.37187365 19.38841849 103.89870166 17.76953125 101.4375 C17.36476563 100.82003906 16.96 100.20257813 16.54296875 99.56640625 C8.43984697 88.80367089 -6.28652068 82.46532203 -19.23046875 80.4375 C-37.89024854 79.61708023 -53.16133234 82.32783668 -67.73046875 94.8125 C-77.63147106 104.3681185 -83.21898252 114.99834005 -85.48046875 128.4375 C-85.73957031 129.88576172 -85.73957031 129.88576172 -86.00390625 131.36328125 C-86.4238513 133.71963957 -86.83241947 136.07736214 -87.23046875 138.4375 C-88.55046875 138.4375 -89.87046875 138.4375 -91.23046875 138.4375 C-92.12612828 123.44349596 -87.12880148 108.91335553 -77.26806641 97.54150391 C-68.26394464 87.71571324 -57.61536098 79.22466884 -44.23046875 76.4375 C-44.87113281 76.14617187 -45.51179688 75.85484375 -46.171875 75.5546875 C-57.80517601 70.04143903 -65.40761271 62.42841298 -70.66796875 50.5 C-74.32212321 39.29922219 -73.68011013 25.97967161 -68.8359375 15.30078125 C-62.10511133 3.29665575 -52.35836152 -4.45865453 -39.23046875 -8.5625 C-24.69911781 -12.08454493 -11.96778624 -8.38373817 0 0 Z M-52.23046875 2.4375 C-52.9575 2.91574219 -53.68453125 3.39398438 -54.43359375 3.88671875 C-62.47434805 9.98720407 -66.57851058 19.7305392 -68.23046875 29.4375 C-69.66017055 41.56348931 -65.90936514 52.53781349 -58.43359375 62.0625 C-55.08318393 65.67428931 -51.54241989 68.10529686 -47.23046875 70.4375 C-46.28880859 71.05431641 -46.28880859 71.05431641 -45.328125 71.68359375 C-36.88755496 76.51393977 -24.8221364 75.81559912 -15.6484375 73.5546875 C-4.37958801 69.18601928 3.37560706 62.25458374 8.76953125 51.4375 C13.48014921 39.56875439 12.8010147 28.10203768 7.76953125 16.4375 C3.47623002 8.84911431 -1.51610388 3.49014776 -9.23046875 -0.5625 C-9.93171875 -0.97371094 -10.63296875 -1.38492188 -11.35546875 -1.80859375 C-24.82053856 -8.56450551 -40.2237113 -5.52914582 -52.23046875 2.4375 Z " fill="#F3F3F3" transform="translate(128.23046875,40.5625)"/>
</svg>
