<svg width="27" height="22" viewBox="0 0 27 22" fill="none" xmlns="http://www.w3.org/2000/svg">
<path d="M6.87827 4.125C7.42528 4.125 7.94989 3.9077 8.33668 3.52091C8.72347 3.13411 8.94077 2.60951 8.94077 2.0625C8.94077 1.51549 8.72347 0.990886 8.33668 0.604092C7.94989 0.217298 7.42528 0 6.87827 0C6.33126 0 5.80666 0.217298 5.41987 0.604092C5.03307 0.990886 4.81577 1.51549 4.81577 2.0625C4.81577 2.60951 5.03307 3.13411 5.41987 3.52091C5.80666 3.9077 6.33126 4.125 6.87827 4.125ZM6.53452 20.625V15.125H7.22202V20.625C7.22202 21.3855 7.83648 22 8.59702 22C9.35757 22 9.97202 21.3855 9.97202 20.625V8.25H12.3783H15.1283H15.8158C16.5763 8.25 17.1908 7.63555 17.1908 6.875C17.1908 6.11445 16.5763 5.5 15.8158 5.5H15.1283V2.75H23.3783V11H15.1283V9.625H12.3783V11.6875C12.3783 12.8262 13.3021 13.75 14.4408 13.75H24.0658C25.2044 13.75 26.1283 12.8262 26.1283 11.6875V2.0625C26.1283 0.923828 25.2044 0 24.0658 0H14.4408C13.3021 0 12.3783 0.923828 12.3783 2.0625V5.5H9.07398H6.23804C4.78999 5.5 3.44937 6.26055 2.70171 7.50234L0.196633 11.6703C-0.194383 12.3191 0.0161639 13.1656 0.664992 13.5566C1.31382 13.9477 2.1603 13.7371 2.55132 13.0883L3.78452 11.0387V20.625C3.78452 21.3855 4.39898 22 5.15952 22C5.92007 22 6.53452 21.3855 6.53452 20.625Z" fill="#B4C0FF"/>
</svg>
