<svg width="27" height="21" viewBox="0 0 27 21" fill="none" xmlns="http://www.w3.org/2000/svg">
<path d="M10.5 2.625H15.75V5.25H10.5V2.625ZM9.84375 0C8.75684 0 7.875 0.881836 7.875 1.96875V5.90625C7.875 6.99316 8.75684 7.875 9.84375 7.875H11.8125V9.1875H1.3125C0.586523 9.1875 0 9.77402 0 10.5C0 11.226 0.586523 11.8125 1.3125 11.8125H5.25V13.125H3.28125C2.19434 13.125 1.3125 14.0068 1.3125 15.0938V19.0312C1.3125 20.1182 2.19434 21 3.28125 21H9.84375C10.9307 21 11.8125 20.1182 11.8125 19.0312V15.0938C11.8125 14.0068 10.9307 13.125 9.84375 13.125H7.875V11.8125H18.375V13.125H16.4062C15.3193 13.125 14.4375 14.0068 14.4375 15.0938V19.0312C14.4375 20.1182 15.3193 21 16.4062 21H22.9688C24.0557 21 24.9375 20.1182 24.9375 19.0312V15.0938C24.9375 14.0068 24.0557 13.125 22.9688 13.125H21V11.8125H24.9375C25.6635 11.8125 26.25 11.226 26.25 10.5C26.25 9.77402 25.6635 9.1875 24.9375 9.1875H14.4375V7.875H16.4062C17.4932 7.875 18.375 6.99316 18.375 5.90625V1.96875C18.375 0.881836 17.4932 0 16.4062 0H9.84375ZM3.9375 18.375V15.75H9.1875V18.375H3.9375ZM17.0625 15.75H22.3125V18.375H17.0625V15.75Z" fill="#B4C0FF"/>
</svg>
