<?xml version="1.0" standalone="no"?>
<!DOCTYPE svg PUBLIC "-//W3C//DTD SVG 20010904//EN"
 "http://www.w3.org/TR/2001/REC-SVG-20010904/DTD/svg10.dtd">
<svg version="1.0" xmlns="http://www.w3.org/2000/svg"
 width="512.000000pt" height="512.000000pt" viewBox="0 0 512.000000 512.000000"
 preserveAspectRatio="xMidYMid meet">

<g transform="translate(0.000000,512.000000) scale(0.100000,-0.100000)"
fill="#000000" stroke="none">
<path d="M853 3898 c4 -1323 2 -1281 58 -1488 116 -427 381 -785 754 -1017
263 -163 580 -253 895 -253 586 0 1124 297 1443 797 119 186 199 398 243 643
16 86 18 215 21 1318 l4 1222 -355 0 -356 0 0 -1122 c0 -689 -4 -1165 -10
-1233 -14 -144 -40 -238 -100 -360 -285 -578 -1029 -734 -1531 -320 -139 114
-272 320 -318 495 -37 139 -41 260 -41 1418 l0 1122 -356 0 -355 0 4 -1222z"/>
<path d="M570 285 l0 -285 1990 0 1990 0 0 285 0 285 -1990 0 -1990 0 0 -285z"/>
</g>
</svg>
