<?xml version="1.0" standalone="no"?>
<!DOCTYPE svg PUBLIC "-//W3C//DTD SVG 20010904//EN"
 "http://www.w3.org/TR/2001/REC-SVG-20010904/DTD/svg10.dtd">
<svg version="1.0" xmlns="http://www.w3.org/2000/svg"
 width="512.000000pt" height="512.000000pt" viewBox="0 0 512.000000 512.000000"
 preserveAspectRatio="xMidYMid meet">

<g transform="translate(0.000000,512.000000) scale(0.100000,-0.100000)"
fill="#000000" stroke="none">
<path d="M2277 5109 c-334 -32 -666 -157 -902 -338 -359 -275 -540 -715 -486
-1178 30 -257 113 -444 284 -637 l58 -66 987 1 987 0 -100 40 c-55 22 -212 78
-350 125 -552 190 -777 298 -895 431 -193 217 -122 557 150 716 234 136 642
155 912 41 186 -78 322 -209 442 -427 184 -334 633 -328 799 12 30 63 32 72
32 181 0 112 -1 117 -36 190 -135 281 -433 564 -763 725 -320 157 -720 222
-1119 184z"/>
<path d="M40 2592 c-29 -23 -39 -81 -39 -222 0 -141 10 -199 39 -222 21 -17
93 -18 1429 -18 l1406 0 113 -49 c217 -95 349 -179 449 -285 117 -124 158
-238 151 -426 -4 -109 -6 -121 -41 -193 -122 -259 -448 -392 -912 -374 -366
15 -601 103 -786 294 -106 109 -169 211 -235 387 -20 50 -46 109 -59 131 -35
61 -117 132 -193 168 -63 30 -73 32 -183 32 -113 0 -117 -1 -190 -37 -120 -59
-202 -160 -235 -288 -33 -129 -1 -267 116 -500 278 -555 750 -870 1450 -967
90 -12 194 -17 370 -17 258 -1 348 8 551 50 588 122 1026 477 1169 944 50 166
55 202 54 415 0 167 -4 217 -22 303 -27 126 -68 240 -121 338 l-40 74 388 0
c441 0 425 -3 442 80 11 58 11 262 0 320 -6 26 -18 52 -31 62 -21 17 -137 18
-2520 18 -2383 0 -2499 -1 -2520 -18z"/>
</g>
</svg>
