<svg width="17" height="22" viewBox="0 0 17 22" fill="none" xmlns="http://www.w3.org/2000/svg">
<path d="M8.25 0C6.45391 0 4.92422 1.14727 4.36133 2.75H2.75C1.2332 2.75 0 3.9832 0 5.5V19.25C0 20.7668 1.2332 22 2.75 22H13.75C15.2668 22 16.5 20.7668 16.5 19.25V5.5C16.5 3.9832 15.2668 2.75 13.75 2.75H12.1387C11.5758 1.14727 10.0461 0 8.25 0ZM8.25 2.75C8.61467 2.75 8.96441 2.89487 9.22227 3.15273C9.48013 3.41059 9.625 3.76033 9.625 4.125C9.625 4.48967 9.48013 4.83941 9.22227 5.09727C8.96441 5.35513 8.61467 5.5 8.25 5.5C7.88533 5.5 7.53559 5.35513 7.27773 5.09727C7.01987 4.83941 6.875 4.48967 6.875 4.125C6.875 3.76033 7.01987 3.41059 7.27773 3.15273C7.53559 2.89487 7.88533 2.75 8.25 2.75ZM3.09375 11.6875C3.09375 11.414 3.2024 11.1517 3.3958 10.9583C3.58919 10.7649 3.8515 10.6562 4.125 10.6562C4.3985 10.6562 4.66081 10.7649 4.8542 10.9583C5.0476 11.1517 5.15625 11.414 5.15625 11.6875C5.15625 11.961 5.0476 12.2233 4.8542 12.4167C4.66081 12.6101 4.3985 12.7188 4.125 12.7188C3.8515 12.7188 3.58919 12.6101 3.3958 12.4167C3.2024 12.2233 3.09375 11.961 3.09375 11.6875ZM7.5625 11H13.0625C13.4406 11 13.75 11.3094 13.75 11.6875C13.75 12.0656 13.4406 12.375 13.0625 12.375H7.5625C7.18437 12.375 6.875 12.0656 6.875 11.6875C6.875 11.3094 7.18437 11 7.5625 11ZM3.09375 15.8125C3.09375 15.539 3.2024 15.2767 3.3958 15.0833C3.58919 14.8899 3.8515 14.7812 4.125 14.7812C4.3985 14.7812 4.66081 14.8899 4.8542 15.0833C5.0476 15.2767 5.15625 15.539 5.15625 15.8125C5.15625 16.086 5.0476 16.3483 4.8542 16.5417C4.66081 16.7351 4.3985 16.8438 4.125 16.8438C3.8515 16.8438 3.58919 16.7351 3.3958 16.5417C3.2024 16.3483 3.09375 16.086 3.09375 15.8125ZM6.875 15.8125C6.875 15.4344 7.18437 15.125 7.5625 15.125H13.0625C13.4406 15.125 13.75 15.4344 13.75 15.8125C13.75 16.1906 13.4406 16.5 13.0625 16.5H7.5625C7.18437 16.5 6.875 16.1906 6.875 15.8125Z" fill="white"/>
</svg>
