<svg width="25" height="18" viewBox="0 0 25 18" fill="none" xmlns="http://www.w3.org/2000/svg">
<path d="M2.8125 2.1875C2.8125 1.60734 3.04297 1.05094 3.4532 0.640704C3.86344 0.230468 4.41984 0 5 0C5.58016 0 6.13656 0.230468 6.5468 0.640704C6.95703 1.05094 7.1875 1.60734 7.1875 2.1875C7.1875 2.76766 6.95703 3.32406 6.5468 3.7343C6.13656 4.14453 5.58016 4.375 5 4.375C4.41984 4.375 3.86344 4.14453 3.4532 3.7343C3.04297 3.32406 2.8125 2.76766 2.8125 2.1875ZM2.5 8.34766C2.10938 8.78516 1.875 9.36719 1.875 10C1.875 10.6328 2.10938 11.2148 2.5 11.6523V8.34766ZM8.14062 6.42188C6.98047 7.44922 6.25 8.95312 6.25 10.625C6.25 11.9648 6.71875 13.1953 7.5 14.1602V15C7.5 15.6914 6.94141 16.25 6.25 16.25H3.75C3.05859 16.25 2.5 15.6914 2.5 15V13.9531C1.02344 13.25 0 11.7461 0 10C0 7.58203 1.95703 5.625 4.375 5.625H5.625C6.5625 5.625 7.42969 5.91797 8.14062 6.41797V6.42188ZM17.5 15V14.1602C18.2812 13.1953 18.75 11.9648 18.75 10.625C18.75 8.95312 18.0195 7.44922 16.8594 6.41797C17.5703 5.91797 18.4375 5.625 19.375 5.625H20.625C23.043 5.625 25 7.58203 25 10C25 11.7461 23.9766 13.25 22.5 13.9531V15C22.5 15.6914 21.9414 16.25 21.25 16.25H18.75C18.0586 16.25 17.5 15.6914 17.5 15ZM17.8125 2.1875C17.8125 1.60734 18.043 1.05094 18.4532 0.640704C18.8634 0.230468 19.4198 0 20 0C20.5802 0 21.1366 0.230468 21.5468 0.640704C21.957 1.05094 22.1875 1.60734 22.1875 2.1875C22.1875 2.76766 21.957 3.32406 21.5468 3.7343C21.1366 4.14453 20.5802 4.375 20 4.375C19.4198 4.375 18.8634 4.14453 18.4532 3.7343C18.043 3.32406 17.8125 2.76766 17.8125 2.1875ZM22.5 8.34766V11.6562C22.8906 11.2148 23.125 10.6367 23.125 10.0039C23.125 9.37109 22.8906 8.78906 22.5 8.35156V8.34766ZM12.5 0C13.163 0 13.7989 0.263392 14.2678 0.732233C14.7366 1.20107 15 1.83696 15 2.5C15 3.16304 14.7366 3.79893 14.2678 4.26777C13.7989 4.73661 13.163 5 12.5 5C11.837 5 11.2011 4.73661 10.7322 4.26777C10.2634 3.79893 10 3.16304 10 2.5C10 1.83696 10.2634 1.20107 10.7322 0.732233C11.2011 0.263392 11.837 0 12.5 0ZM9.375 10.625C9.375 11.2578 9.60938 11.8359 10 12.2773V8.97266C9.60938 9.41406 9.375 9.99219 9.375 10.625ZM15 8.97266V12.2812C15.3906 11.8398 15.625 11.2617 15.625 10.6289C15.625 9.99609 15.3906 9.41406 15 8.97656V8.97266ZM17.5 10.625C17.5 12.3711 16.4766 13.875 15 14.5781V16.25C15 16.9414 14.4414 17.5 13.75 17.5H11.25C10.5586 17.5 10 16.9414 10 16.25V14.5781C8.52344 13.875 7.5 12.3711 7.5 10.625C7.5 8.20703 9.45703 6.25 11.875 6.25H13.125C15.543 6.25 17.5 8.20703 17.5 10.625Z" fill="#B4C0FF"/>
</svg>
